<svg id="Layer_1" xmlns="http://www.w3.org/2000/svg" viewBox="0 0 720 768"><style>.st0{fill:#5C8CF8;} .st1{fill:#3C66D9;} .st2{fill:#96B5FA;} .st3{fill:#ED9389;}</style><g id="_x30_6_1_"><path class="st0" d="M314.73 908.794v-.693c-.346 3.12 0 6.24 0 9.358-5.718-.347-11.436-.694-17.154-1.387v-1.558c-4.158-2.08-4.33-8.837-5.37-12.822-2.427-9.704-4.68-19.234-6.585-28.937-4.678-24.605-8.49-49.556-11.61-74.507l-4.677-38.467c-1.04-8.49-.52-28.07-6.93-35.175-24.606-4.16-49.384-16.807-71.043-28.763-20.446-11.263-38.813-24.778-34.654-50.596 1.56-5.198 5.37-8.317 10.57-8.49h1.385c13.863 10.05 28.418 19.406 42.453 29.283 14.728 10.395 33.095 24.604 52.155 23.564-2.08-14.208-6.93-28.59-10.396-42.625 25.99-10.744 53.02-5.2 80.4-3.813 32.4 1.56 65.67-1.213 98.244-.867 39.16.52 78.666 3.12 117.826 1.56l56.14-2.08c11.61-.346 22.525-1.212 33.96 1.907l-4.85 7.277h-1.04l-.173.173c-2.254 8.837-4.506 17.5-6.586 26.338-1.386 5.37-4.158 11.956-2.6 17.5 9.358 3.466 32.577-20.273 38.468-25.99 9.703-9.184 20.793-30.323 36.56-26.338 21.313 10.57-8.317 46.61-19.406 54.58-18.367 13.17-39.853 20.62-58.046 33.79-5.025 28.936-6.758 58.392-11.09 87.33-4.158 27.895-9.53 55.273-15.075 82.823h.174c-.694 2.252-1.388 4.505-1.907 6.93h-.174c-.52 1.56-.52 3.293-.347 4.852h-1.906c-1.213 1.906-2.08 1.56-2.426 3.466-3.81-.173-7.796.693-11.435 1.733l.173-1.56c-8.49.694-16.114 1.387-24.604.52v.52c-6.065-1.56-12.13-2.945-18.194-4.85-5.89-21.313 2.08-45.745-3.292-67.75 6.41.173 12.822-.52 19.06-1.213.173-.867.52-1.56.693-2.426-43.317.52-86.116 5.372-129.434 4.16-28.763-.867-57.353-3.813-86.29-4.16.174.694.347 1.387.693 2.253 6.237.693 12.475 1.387 18.713 1.213-1.213 10.05-1.04 19.927-1.213 29.976-.173 9.704 2.6 26.684-1.04 35.868-4.33 4.678-13.515 5.718-19.58 7.624v-6.065c-.173 1.732-.173 3.465-.173 5.37-5.89 0-11.262-.346-16.98 1.387l-1.387-10.223zm263.548 1.386c0 .52 0 1.04-.173 1.386.173-.346.173-.866.173-1.386z"/><path class="st1" d="M345.053 861.49c1.733-.346 3.292-.52 5.025-.52v-6.584c.173-2.08.347-3.985.52-5.37-1.386 0-2.6 0-3.64-.174-5.37-.52-9.53-.867-12.3-1.213-.52 0-.868 0-1.04-.175v-.173c-.347-.173-.52-.346-.52-.693v.172c-.867-2.945-1.56-5.37-1.907-7.104v-.173-.693h.175c.173-.347.346-.52.52-.693-2.773-.175-5.026.172-6.585 1.212-2.253 1.212-3.465 3.292-3.465 6.41 0 1.214.346 2.426 1.212 3.986 1.213 2.08 1.906 3.812 2.426 5.198 1.04 2.6 2.08 4.332 3.466 5.025 2.425.867 7.97 1.56 16.113 1.56m-78.666-140.004v.693c.174.346.174.692.174 1.04.694 2.078 1.213 3.984 1.733 5.717.693 2.08 1.386 3.812 1.906 5.37 0 .868.173 1.734.173 2.774l.52 3.466c0 .347 0 .693.173 1.213v1.04c.693 5.543 1.56 12.82 2.425 21.484.695 5.025 1.388 10.57 1.907 16.288.174.866.174 1.56.174 2.253l1.214 10.05c1.386 10.916 2.945 22.525 5.025 35 3.637 24.605 6.93 43.32 9.875 56.487 2.253 9.357 4.16 16.808 5.372 22.526l.52 1.56v.692c-.174 0-.174 0-.174.174 0 .346.173.52.52.693.346.52 1.04.866 2.252 1.213.347.173.694.346 1.04.693v.173c3.292.347 6.41.52 9.184.693v-3.64c0-3.638 1.038-5.718 2.944-6.41 1.56-.694 2.773-.347 3.64 1.04.692.692 1.212 2.078 1.558 4.158v.173l.693 5.72c.694-.174 1.387-.348 2.253-.52H328.766c0-.867 0-1.56.174-2.254 0-1.906.345-3.292 1.038-4.158.867-1.56 2.08-1.906 3.64-1.213 2.078.866 3.29 3.12 3.29 6.93.52-.172.868-.346 1.214-.52.173-.172.347-.172.52-.172 4.505-1.04 7.624-1.906 9.703-2.773l.174-.173c0-.346.172-.52.518-.693.52-.52.693-1.733.693-3.985 0-1.56-.172-2.774-.518-3.64v-.173c-.174-.173-.174-.347 0-.52v-.173c-11.61-.693-21.66-1.04-29.803-1.04-2.774-.173-5.893-1.906-9.358-5.198-3.465-3.12-5.198-7.797-5.37-13.862.345-7.104.345-12.302 0-15.768-.695-12.995-1.214-22.872-1.734-29.456-.867-11.61-1.906-21.486-3.292-29.63-1.387-8.317-2.6-16.46-3.64-24.43v-.174c-1.212-5.372-3.118-13.516-5.717-24.432-.174-.866-3.12-8.664-8.838-23.738-.866-2.08-1.56-3.986-2.253-5.892-2.426-.866-5.2-1.906-8.664-2.945-1.386-.52-2.946-1.04-4.16-1.734m288.327 137.58c-1.213-5.2-1.733-8.145-1.733-8.318-.52-1.213-1.04-2.08-1.732-2.946-2.6.346-6.238.693-10.917 1.04-1.212.173-2.424.173-3.637.173.346 1.56.52 3.292.693 5.37l.173 45.745c-.174.52-.174 1.906-.174 4.16v2.77c.173.694.346 1.214.693 1.56.345.174.52.52.692 1.04v.174c2.08.693 5.545 1.56 10.05 2.772 0-1.04.173-2.946.693-5.718.346-1.386.866-2.253 1.56-2.772.866-.867 1.905-.867 3.29-.174.175.174.348.347.695.52.693.347 1.212.866 1.56 1.56l.52 1.732v1.213c0 1.906-.174 3.466-.52 4.68 3.29.345 7.103.345 11.608.172h.174c1.906-.348 3.812-.52 5.718-.694v-1.04c0-1.04 0-2.08.173-3.292l.52-3.64c0-.345 0-.52.173-.52.52-1.038.866-1.73 1.213-1.905v-.174c1.558-1.56 3.118-1.56 5.024 0 .173.347.346.52.52.693.346.866.52 2.252.52 4.504s0 3.986-.174 5.372c1.386-.347 2.6-.52 3.985-.52.174-.52.52-.693 1.04-.693.693-.347 1.213-1.04 1.56-1.906.173-.347.346-.52.52-.693h.173v-.174l.52-1.732c.346-1.04.692-2.08 1.04-3.292l-1.56-.52-2.426-3.292c-.867-1.04-5.025-1.56-12.303-1.56-2.773 0-9.53 1.04-19.927 2.946.866-15.248 1.386-26.51 1.56-33.788-.347-2.253-.694-5.2-1.56-8.837zM535.133 687.698c.52-.693 1.04-1.386 1.733-1.906-4.678-7.104-9.01-14.035-16.288-18.714-27.723-17.847-64.63-17.154-95.993-14.035-13.688 1.387-27.204 4.332-40.72 5.718-4.33.52-12.648-.692-16.633 1.734-3.12 1.906-4.16 5.89-5.718 9.357l.173 1.04c.347 0 .693 0 1.04-.173-.866.52-1.56 1.04-2.253 1.733 1.56 4.505-3.812 11.09-5.544 14.9-4.16 8.492-10.397 19.06-10.223 28.765.173 6.757 6.584 10.743 6.237 16.287-.173 4.505-14.38 18.54-9.53 23.392h.52l.693.693c.867-1.906 1.56-3.292 1.906-4.158.52-1.04 1.56-1.56 3.292-1.56.867.346 1.733.52 2.773.692 0 0-2.08 10.05-1.906 11.436.866 4.68 5.198 8.664 8.49 11.61 7.797 7.277 17.327 12.13 26.857 16.807 18.193 9.183 34.827 15.42 55.62 15.248 24.43-.347 48.863-5.37 71.562-14.035 20.446-7.797 31.708-20.1 44.53-37.254 0-12.822-1.905-24.258-4.504-36.56-2.253-11.263-10.224-21.313-16.115-31.016z"/><path d="M704.074 636.41c-17.154 0-23.565 6.93-35 18.366-10.917 10.743-24.78 19.407-37.08 28.59 1.73-8.49 9.53-27.204 5.024-35-.867-.867-3.64-1.214-5.025-1.214l-.52.52h-.173l-1.213 1.04c-1.733 6.584-3.293 13.342-5.025 19.926-1.56 6.238-7.45 19.233-4.852 25.644 0 16.288 34.308-12.302 37.947-15.594 9.703-8.317 25.644-33.962 39.333-32.402 10.05 5.025.52 24.258-3.466 30.15-6.93 10.222-15.42 16.633-25.817 22.87-16.808 10.05-34.308 18.195-50.25 29.458-7.104 59.952-12.13 121.984-28.59 180.203h-.173c-3.638 3.64-1.386 2.6-6.93 3.985.346-3.465.866-7.45-.694-10.57-1.732-1.56-3.465-1.56-5.025 0v.174c-2.6 2.6-2.08 7.104-2.252 10.396-5.89.52-11.436 1.04-17.5.52 1.212-4.332.692-6.757-2.253-9.703-1.386-.694-2.426-.52-3.292.172-1.906 1.386-2.253 6.238-2.253 8.317-4.678-1.214-7.97-2.08-10.05-2.773v-.173c-6.064-18.367 2.08-41.24-2.252-60.472 4.158 0 14.38 1.04 17.5-2.253.693-2.947 2.6-6.24 1.56-9.184-5.025-2.426-15.075 0-20.793.346-14.9.693-29.976 1.733-44.878 2.6-25.99 1.56-51.98 1.732-77.8.52-9.53-.348-19.06-1.04-28.59-1.387-6.583-.347-49.382-7.104-52.327-1.213h-.174c.348 2.772 1.214 5.37 1.907 8.144v-.174c0 .347.174.52.52.694v.173c2.08 2.078 14.382 1.732 16.98 1.732-1.56 13.342-.692 27.377-.866 40.892 0 3.64 0 7.277-.172 10.916-.173 10.743-2.252 8.837-12.302 12.302 0-2.6-3.812-11.09-6.93-5.718-1.04 1.387-1.214 4.852-1.214 6.412-3.292 0-6.41-.347-9.703.52-.175-2.426-.348-8.318-2.254-10.05-1.04-1.387-2.252-1.733-3.64-1.04-3.637 1.213-3.117 7.104-2.944 10.05-2.773-.174-5.89-.347-9.184-.693v-.174c-.52-.52-4.158-2.946-3.465-2.946-7.278-36.388-15.075-72.255-19.926-109.162-1.906-14.382-3.466-28.763-5.2-43.145-1.212-10.916-1.038-27.55-8.49-36.04-35.347-5.372-68.442-26.858-97.205-46.61-5.89-8.665-7.624-17.502-6.41-27.725 1.04-3.638 3.464-5.544 6.93-5.718 16.807 12.13 34.308 24.258 51.808 35.52 15.422 9.878 29.457 18.368 47.997 17.155 1.56-5.372-8.49-44.705-10.05-44.705v-.173c-.693-.52-1.213-.867-1.733-1.56-.52 0-5.025.173-5.025 1.213-4.332 7.624 2.945 25.644 4.505 33.615-15.075-8.49-31.016-15.768-45.744-24.778-12.822-7.797-46.956-41.24-57.18-15.94-10.742 26.683 11.956 45.223 31.016 57.7 22.526 14.9 47.477 23.044 72.948 31.36 1.56 14.036 6.238 27.205 7.797 41.413 2.427 22.006 5.546 44.01 8.838 66.017 4.16 26.857 7.278 55.794 15.422 81.785h.173c.173.52.693 1.04 1.213 1.213h.173c8.49 8.49 33.44 5.718 44.357 4.85 7.97-.518 21.832.52 26.164-8.142 0-.347 0-.694-.172-1.04.346-.52.52-1.04.693-1.733 0-.173.174-.173.52-.173-.173-20.966-4.158-43.665-1.212-64.458 55.62 4.332 111.587 4.68 167.208 0 0 21.14-3.465 43.492-1.213 64.458.173 0 .347 0 .52.173.52.867.693 1.733.173 2.773 3.985 7.97 16.46 7.277 23.738 7.797 14.73 1.386 29.63.346 44.185-2.426 6.93-2.773 6.583-13.343 7.796-19.408 3.292-16.46 6.758-32.92 9.53-49.556 6.238-37.773 15.422-78.84 14.382-117.132 22.352-10.743 47.303-25.298 66.363-41.585 8.665-7.452 13.343-15.942 16.636-26.86 2.425-8.142 4.85-27.55-5.372-31.88 0 0 4.852 1.905 0 0zM342.8 762.55h.52c0 2.6 1.387 6.41 1.906 8.663 1.906 7.97 15.075 14.035 21.14 17.674 9.876 5.89 19.926 11.608 30.322 16.46 20.447 9.703 45.225 9.53 67.23 6.41 22.006-3.118 40.546-7.97 60.646-17.326 7.797-3.64 15.074-6.41 21.14-12.822 4.85-5.025 19.232-21.66 15.074-30.15-.347-.173-.694-.346-1.04-.693-13.69 15.594-22.7 30.842-42.452 39.505-22.7 9.877-47.996 15.422-72.6 16.288-20.967.866-37.948-3.985-56.488-12.995-10.916-5.372-22.006-10.57-31.016-18.887-3.292-3.118-7.624-7.103-8.49-11.608-.173-1.387 1.906-11.436 1.906-11.436-.867-.174-1.906-.347-2.773-.694-1.732 0-2.772.52-3.292 1.56-.52.866-1.213 2.252-1.906 4.158l-.693-.693h-.52c-4.505-4.505 8.317-18.193 9.01-22.352 1.04-6.41-5.544-9.703-5.717-17.327-.174-9.01 5.37-18.714 9.183-26.684 1.906-3.985 8.317-12.13 6.584-17.154l-.52-.52c-10.223 7.797-21.485 34.655-20.272 47.65.693 5.89 4.505 9.703 3.12 15.595-1.388 5.89-11.264 16.98-6.413 23.39 1.04 1.734 3.118 3.12 6.41 3.987zm206.715-50.423c2.08 6.584 1.213 16.98 5.198 22.525l1.213 1.213c1.04-.693 1.733-1.386 2.252-1.906-.173-.174 0-9.704-.173-10.916-.693-4.68-2.08-9.357-3.985-13.69-4.16-9.01-10.57-16.113-18.02-22.524l-.693 1.04c4.158 6.757 8.317 18.366 14.208 24.257 1.04 3.118-.173-.174 0 0z"/><g><path class="st0" d="M679.296 590.665c-4.505-16.98-22.006-75.373-40.72-104.483.52-3.64 1.04-7.278 1.734-10.916 5.198-29.63 2.426-58.393-8.317-85.944v-.347c-1.387-2.946-2.773-5.198-3.986-6.93l-3.465-5.72-3.466 2.08c-.693.52-1.386.867-1.906 1.04-15.767 3.64-62.378 34.828-79.358 57.526-18.367-9.356-58.393-20.62-78.32-20.62-16.287 0-50.595-.865-77.8 7.452l-.346-.52c-1.906-2.6-3.292-4.16-4.85-4.852-3.467-3.64-7.105-7.277-10.917-10.743-21.487-22.526-46.092-38.814-73.123-48.17h-.173l-9.183-2.6h-.173c-3.465-.693-6.93-1.213-10.223-1.386l-3.465-.173-.694 3.466c-.347 1.56-.867 4.332-1.733 8.144-1.906 5.198-3.64 10.397-5.198 15.42l-3.12 9.878h2.6c.173 2.772 0 5.37-.173 7.797-.52 5.372-.867 10.743-1.213 16.115-3.813-1.387-5.892-2.253-5.892-2.253-2.08 25.298-6.93 50.076 3.12 83.69-23.913 24.26-43.84 68.963-45.92 101.54-2.078 32.747-6.063 55.273-6.063 55.273l20.446 18.886 34.655 2.08 376.695 5.37 9.184-5.89.52 3.12 3.118.345c1.387.174 2.253.348 2.946.348l1.04.52c.346.173.866.346 1.213.52v2.425l4.506-.693c2.6-.346 4.85-.866 6.584-1.733 1.04-.346 1.906-.866 2.6-1.56l1.905-1.905-1.04-2.426c-.346-.693-.52-1.386-1.04-2.08l1.734 1.387V662.92l-1.388-1.213c-.346-.173-.52-.52-.693-.866l8.316-5.37c-.173-.174 6.412-44.878 1.04-64.805z"/><path class="st1" d="M267.08 400.585c.347-3.64.347-7.624 0-12.13h-1.04c-5.544 35.35-12.475 68.79-.692 103.965 2.08.866 6.237 2.772 8.663 2.772 10.744-7.97-2.598-30.843-5.37-40.546-5.025-17.674-3.12-36.04-1.56-54.06m387.438 261.12c-5.198-3.81-19.58-2.425-25.818-2.425-13.688-.172-27.203-.345-40.892-.692-29.283-.52-58.566-.693-87.85-.866-52.5-.347-105.002-.347-157.504-.867-19.233-.173-39.506.174-58.566-2.425-18.887-2.426-30.496-20.966-49.903-20.966-5.025-17.674-7.104-33.79-2.6-51.636 1.56-6.064 3.12-12.302 5.2-18.367 3.118-8.662 1.905-17.5 4.504-26.163l-.694-.173c-17.847 35-23.738 72.255-23.738 111.068 1.213-.52 2.772-.693 3.985-1.04 0 .173.693 5.025 0 4.678 3.466-3.465-9.703 3.12-4.158.694-2.426 1.04-4.852 5.024-6.41 6.93 0 1.733 2.598 5.2 3.29 6.412 1.734-5.025 7.278-7.624 11.783-7.624.347.173.52.693.52 1.732-.866 4.505-6.064 9.01-7.97 13.342.346.347.52.693.693 1.213l.52-.52h.174c.173.52.173 1.04.173 1.732.173.173.347.347.693.52v-.173c.173.172.347.172.52.172-.173.52 0 .866.52 1.213h.173c.347.52.866.866 1.56 1.04l3.465-8.318c19.233 3.12 40.892.347 60.3.347 22.698 0 45.396-.173 67.922-.173 38.986 0 78.146.174 117.132.347 46.957.347 94.087 1.213 141.044 2.253 4.16.173 56.66 3.638 41.932-11.263m-229.76-111.24c-1.905-.174-3.638-.348-5.024-.694-.347-.52-.347-1.56-.174-2.946-2.252.347-3.465 2.253-3.465 5.89 0 5.373 7.797 11.264 11.09 14.903 2.08 2.08 10.916 8.837 10.916 11.782 1.733 6.758.52 13.862 2.773 20.447h5.718c-1.04-6.76-1.732-15.076.52-21.66-1.732-.174-2.598-1.04-2.945-2.773-.346-2.252-.173-3.985.52-6.238-4.505-6.932-11.436-12.476-16.288-19.234-2.252.347-3.465.52-3.638.52m191.985-165.302c-30.15 13.862-58.22 31.535-80.92 55.967 0 .52 0 1.214.175 2.253 4.678 12.996 35-17.327 40.892-21.832 7.624-5.89 54.234-24.084 44.01-38.465-1.385.866-2.77 1.56-4.157 2.08-5.892 2.77 1.386-.52 0 0z"/><path class="st2" d="M459.413 427.27c-2.426-.174-5.025-.52-7.45-.52.866 7.45 8.49 34.827 3.465 37.253 2.772 1.386 6.757.693 8.663-1.733 4.507-5.198-.518-14.208-.865-20.273-.173-4.85.693-9.703.173-14.555-1.386-.173-2.772-.173-3.985-.173m-30.67 6.583c-.866-3.118-1.732-5.718-2.425-7.624-4.332 0-8.49.52-12.822.52 8.144 12.302 13.515 25.124 18.713 38.812 13.168-.693-1.733-27.55-3.466-31.71m66.71.52c-2.253 9.01-3.985 26.34-11.61 33.096 3.293 6.585 11.263 1.733 12.303-3.465 1.04-10.916 9.183-19.233 9.183-29.803-2.945-.693-6.41-1.04-9.356-1.906l-.52 2.08m154.04 67.576c-.694-1.56-1.56-2.773-2.773-3.986-4.158.867-6.584 1.387-7.623 1.733-1.733-.52-2.426-1.733-2.426-3.64 0-1.558 1.56-3.118 4.68-4.677-.694-.52-1.387-1.04-1.907-1.56l-4.505 1.04c-.173 0-.173.173 0 .173l-1.04-.173c0-.693 0-1.213.174-1.733-.693.174-1.386.347-2.253.694-6.065 3.293-8.49 15.422-6.065 21.486 1.733 4.332 6.757 6.065 8.49 10.397 1.04 2.6.173 5.198.52 7.97 2.426 18.194 12.822 33.095 19.407 49.73 5.89 14.9 7.97 27.377 9.356 43.318.867 9.877-2.772 36.04 4.16 41.76 1.558 1.56 3.638 2.252 6.41 2.252.173-1.386.52-2.426 1.56-3.466-2.6-3.812-4.68-5.718-5.892-5.718-1.56-.173-2.08-.173-1.906 0 .52-.52-.693-3.292.173-4.158 1.387 0 2.773.346 4.16 1.04 7.276-51.29-5.373-104.484-31.883-148.668l.52.173c-.174-1.213 0-2.253.52-3.466.173-.174.346-.174.692-.174l-.173-.52c1.732-1.04 3.118-1.386 4.504-1.213.867.867 2.08 1.213 3.12 1.387M296.19 399.545c.173-.693.52-1.212 1.04-1.732v-1.04c-5.718-1.56-16.808-4.505-17.5 4.16-.694 7.276 9.703 12.82 12.302 18.712-4.16-.346-8.837 0-11.436 3.64-4.505 6.063.693 9.53 3.12 14.727 4.677 9.53.345 19.58.345 29.803 3.467 14.035 51.983-15.595 59.434-19.926 1.213-1.04 1.906-2.427 2.425-4.507-6.758-6.757-10.743-15.594-17.674-22.005-9.357-8.664-21.833-14.21-32.056-21.833m18.02 37.254c-.173.865-.173.346-.173-1.56.174-3.64 4.332-3.466 12.303.173 7.797 3.812 11.61 7.624 11.436 11.61-.174 1.732-.347 2.252-.693 1.905-2.08 5.718-21.66-11.09-22.872-12.13m2.253 13.69l-.173-3.293c1.213-1.212 2.6-1.386 4.158-.52 1.56.694 2.6 1.733 3.293 2.946 0 .348 0 .868-.173 1.56-1.56 1.387-5.89-.346-7.104-.692M620.21 432.12c0-4.33-4.852-7.797-8.664-7.103-12.13 9.53-24.258 18.54-35 29.456 6.757-4.505 19.752-11.263 27.723-10.916l1.732 1.56c-4.505 7.796-20.793 6.41-27.204 12.82 0 11.61 27.204 20.448 36.214 20.448 7.104 0 10.57-5.892 10.57-17.848 0-6.237-.347-13.168-2.253-19.233-.867-3.12-3.12-5.89-3.12-9.183m-13.342 20.447l.52-.173c3.465 3.465-19.753 9.183-22.18 11.436-.865-.693-1.385-1.213-1.732-1.733 0-2.426 2.6-4.852 7.97-6.93 5.372-2.427 10.57-3.12 15.422-2.6m-2.772 14.9h-2.946c-1.733-1.385-2.252-3.29-1.56-5.37 3.466.52 7.105.866 10.57 1.213 3.64 3.465-5.198 4.158-6.064 4.158-1.733 0 4.332.347 0 0z"/><path class="st3" d="M445.725 563.115c-6.238-7.104-15.075-11.956-23.046-16.808 16.114-1.213 31.88-1.386 47.996-.693-6.065 5.198-12.65 10.05-17.847 16.115v9.53l-7.105-8.145z"/><path d="M613.972 423.804c1.04-.693 1.906-1.213 2.773-1.733-14.555-8.836-48.517 22.526-48.863 36.735l1.906 2.945c.52-.346 1.04-.693 1.56-1.213-.174.174-.174.347-.174.52.346.693 1.213 1.213 2.772 1.56.52-1.906 3.12-3.812 4.68-4.68h.172c6.41-6.41 22.7-5.024 27.204-12.82l-1.733-1.56c-7.972-.52-20.967 6.41-27.725 10.916 10.223-10.396 23.74-25.298 37.427-30.67 1.04-.692-.866.347 0 0zM384.04 609.38c0 1.73.173 2.424.52 2.25l2.772.694c2.252 0 3.465-1.213 3.465-3.465.173-1.734-1.733-2.947-5.37-3.986-.868 1.906-1.388 3.465-1.388 4.505zm56.833-9.53c-15.595-.175-25.644-1.214-29.803-3.294-4.505-1.906-5.198-6.41-7.97-9.876l-1.733.52c-.347 3.812.866 7.45 3.465 10.396 11.263 11.263 33.095 9.357 47.65 9.357 8.664 0 17.847 1.04 26.51-.693 2.947-.52 30.15-10.05 23.393-16.808-.347-.173-.693-.346-1.04-.693-7.45 14.208-34.48 11.435-47.477 10.915-.866-6.757-.173-16.98-2.772-23.39.866-1.56 1.906-1.388 3.292-2.947 1.04-1.733 1.213-3.64.52-5.372 3.465-7.97 18.54-14.554 19.06-23.39 0-3.12-2.08-4.68-6.238-4.68-5.545.347-48.17-.52-48.17 6.585 0 1.214 0 2.253.174 3.466 2.945.693 5.37.693 8.317.173 4.852 6.93 11.437 12.475 16.288 19.233-.693 2.252-.866 3.985-.52 6.237.347 1.733 1.387 2.6 2.946 2.773-2.252 6.757-1.386 14.9-.52 21.66-1.732-.174-3.638-.174-5.37-.174-15.596-.175 1.732 0 0 0zm3.465-43.493c-3.465-2.945-6.584-5.198-9.183-6.93 6.93-.52 15.248-.52 24.95-.174-5.197 4.505-9.01 8.144-11.435 11.09v.173c-1.04-1.213-2.6-2.773-4.332-4.16-3.465-2.944 1.733 1.387 0 0zm61.166 55.1c.52 0 1.386-.865 2.425-2.77-.174-.868-.52-1.56-1.213-1.907-.867.173-1.906 1.386-3.293 3.465.52.347 1.213.866 2.08 1.213.52 0-.867-.347 0 0zm1.213 16.29c1.732.172 2.945-.52 3.985-1.907.693-1.213 1.04-2.253 1.04-3.293.346-6.93-9.01-7.624-9.357-.52v2.426c.693 2.253 2.08 3.293 4.332 3.293 1.732.173-2.253 0 0 0zm-307.04 46.436c2.946-5.2 6.585-10.05 10.397-14.555 1.732-2.253 3.812-5.718 6.41-6.93-.346.172 5.2-1.734 4.16-.694.692.346 0-4.68 0-4.68-1.214.175-2.773.52-3.986 1.04 0-54.753 14.728-101.537 44.878-146.934 1.386-.173 2.6-.693 3.638-1.56 2.773-5.718-2.6-15.767-3.638-20.966-2.08-9.703-3.12-19.753-3.12-29.63-.173-9.876.867-18.54 2.427-28.243 1.56-10.05 2.6-20.272 4.85-30.148 2.254-10.57 6.586-20.446 8.838-31.016 24.952 1.386 50.25 16.634 69.31 31.71 14.21 11.262 30.67 25.123 40.72 40.37 6.41-2.77 12.302-3.81 19.233-4.504 2.945 5.892 15.594 38.813 23.738 38.813 1.734.174 2.773 0 3.466-.693 0-.346.347-.693.693-.693-3.813-13.69-10.397-26.338-18.194-37.947 9.357 0 18.713-.867 28.07-.52 0 4.505 4.678 45.224 14.9 36.907 3.294-2.6-3.81-29.976-4.504-36.387 10.917 0 22.353 1.386 33.095 3.465-1.212 11.436-5.89 22.18-6.584 33.788.52 2.08 2.946 5.025 5.372 3.466 7.97-6.93 10.223-25.818 12.13-35.348 9.875 3.292 21.31 4.505 31.534 5.89 1.212 1.214 4.33 3.12 6.237 2.254.52.693 1.213 1.04 1.906 1.04 12.302-13.343 27.377-25.645 42.452-35.868 14.208-9.53 30.496-14.728 44.877-23.392 9.53 14.555 13.516 32.922 15.075 49.903 1.906 20.447-4.158 38.987-4.158 58.913 2.77-.346 5.37-1.04 8.142-1.56 5.545-20.618 7.278-42.104 4.332-63.244-1.906-14.21-5.544-44.878-18.54-54.408-11.782-8.837-38.466 12.475-48.516 18.367-16.115 9.702-33.615 19.925-46.61 33.614-21.313-5.718-42.8-8.664-64.805-10.397-15.94-1.213-31.708-1.732-47.65-.52-10.396.694-25.297.174-34.827 5.372-15.768-19.408-36.907-38.468-58.567-50.77-5.545-3.12-63.245-27.55-63.938-12.302-.173 1.732 0 2.425.173 1.732l1.56 1.04h.173c-.173 0-.347.173-.52.173-5.718 10.57-6.584 24.778-9.01 36.388-2.426 11.437-5.545 22.7-7.104 34.135-2.946 21.66-2.946 47.65 3.812 68.443-9.357 6.238-16.635 22.18-22.006 31.536-7.797 13.688-14.035 28.416-18.54 43.49-4.332 14.73-7.104 29.804-8.664 45.052-1.213 12.476-3.64 28.417-.52 40.72-6.064 5.89-10.05 11.435-10.57 19.752.52 1.733 1.733 2.772 3.64 2.772 2.772.174 5.024-.693 6.41-2.772 1.56-2.252 2.253-3.64 2.426-3.985-1.906.693-3.638.866-4.505.52 2.253-3.986.867.346 0 0zM637.19 594.13c.174-.692.174-1.212.174-1.56-11.782-8.143-25.818-12.3-39.853-14.38-8.49-1.213-29.975-5.892-37.945-.867 1.04 1.386-.174 2.08-3.64 2.426 15.25 3.118 30.843 3.638 46.09 6.064 11.264 1.732 21.834 8.143 33.097 9.01 1.04 0 1.732-.174 2.08-.693.172-.692-.348.52 0 0zm4.16-102.75c-2.426 1.213-8.144 6.584-2.253 8.317 4.505-1.56 19.753-2.08 20.273-8.664 0-8.663-14.382-1.386-18.02.347-3.12 1.733.346-.173 0 0zm-39.507 101.018c-8.663-.693-22.005-6.758-29.63-1.04 18.54 5.718 38.467 12.476 57.7 14.035 1.387 0 3.293-1.04 6.238-2.945-6.756-9.877-24.43-6.758-34.307-10.05-2.252-.173 1.04.346 0 0zm-72.6 13.342c-.867 1.386-.867 2.772-.52 4.158.346.347.866.52 1.732.694.866-.694 1.386-1.387 1.733-2.253 0-1.04-.52-1.907-1.56-2.947-.52 0-1.04.174-1.386.347-.52.346.347-.173 0 0zm78.318-151.614c0-1.04 0-1.56-.172-1.732-5.198.173-23.912 1.04-23.912 9.703.347.52.867 1.04 1.733 1.733 3.29-3.12 22.35-5.2 22.35-9.704zm-6.41 13.342c1.56.174 13.17-.173 9.184-4.158-3.466-.347-7.105-.693-10.57-1.213-.866 2.08-.52 3.812 1.386 5.37zm59.26 209.314c-3.12.693-12.13-2.773-15.942-2.946-1.732-.173-3.465-.173-5.198-.346-8.49-.347-16.807-.347-25.298-.52-20.966-.52-41.932-.867-62.724-1.386-65.497-1.213-131.168-1.213-196.665-1.213-26.164 0-52.328 0-78.492.174-15.94 0-33.788 2.252-49.555-.347-1.213 2.946-2.253 5.892-3.64 8.664l2.427 1.734c52.155-3.64 104.83-.693 156.985.173 73.987 1.213 147.975 2.426 221.962 3.465 18.193.347 36.906 1.906 55.1 0l1.732-3.465c-.52-1.213-.693-2.6-.693-3.985zm-304.96-56.314c1.212 1.04 2.252 1.56 3.465 1.56 1.733.173 3.12-.694 3.64-2.773.865-1.906 1.385-3.465 1.212-5.37l-.52.52c-1.733-1.388-3.812-1.214-5.892.172-1.732 1.213-3.118 2.6-3.638 4.505.346.52.866 1.04 1.732 1.386 1.212 1.04-.867-.346 0 0zm-130.302 37.774c-8.49 0-24.778 22.698-12.13 23.91 2.427 0 5.893-4.33 6.412-6.41 0-.693-.173-1.213-.173-1.733h-.173l-.52.52-1.733-.174c2.6-3.12 8.145-10.396 8.838-14.382-.173-.866-.346-1.56-.52-1.732-.52 0 .174.173 0 0zm447.39 11.61c-1.732-2.254-5.198-6.586-8.663-6.24 0 .174-.173.174-.52.174-.347.174-.52.867-.693 1.906 0 4.332 5.545 11.09 7.624 14.902h-1.733l-.52-.52c-.346 0-.52.52-.52 1.56-1.04 5.198 6.585 9.703 9.704 3.638 1.906-5.37-.347-10.916-4.68-15.42-1.73-2.08.348.345 0 0zm12.996-4.16c5.545-10.223 3.292-26.857 2.946-38.12-.52-15.42-1.56-30.67-4.68-45.917-2.944-14.382-7.276-28.59-12.994-42.105-2.773-6.41-5.718-12.65-9.01-18.887-3.12-5.89-8.837-11.956-10.917-18.02-1.387-.867-3.293-1.213-4.68-1.906-1.385-.174-2.77.173-4.504 1.213l.173.52c-.347 0-.52 0-.694.173-.52.173-.52 2.6-.52 3.465l-.52-.173c26.51 44.184 39.16 97.206 31.883 148.668-1.388-.693-2.774-1.04-4.16-1.04-.866.867.173 3.812-.173 4.16-.173-.175.52-.175 1.906 0 6.064 0 15.94 20.965 17.5 24.777-1.04 0-2.772-.347-5.198-1.213 1.56 2.945 10.223 13.515 12.303 5.198 0-2.08 0-3.292.173-3.465.347-4.506-2.772-10.224-8.836-17.328 1.04-1.732 6.064 7.104 0 0zM316.117 447.195l.173 3.293c1.213.346 5.545 2.08 6.93.693.174-.692.174-1.212.174-1.56-.693-1.385-1.733-2.25-3.292-2.944-1.386-.867-2.773-.693-3.985.52zm22.352 149.88c-2.254-3.464-19.06-1.038-22.527-.865-10.05.52-19.926 1.906-29.803 3.465-4.678.693-32.92 2.946-33.268 11.09-.173 1.386 0 2.252.173 2.772.347.347 1.04.867 1.906 1.56 10.744-9.704 29.11-10.223 42.8-12.476 11.61-2.078 31.19 1.387 40.72-5.544-.348-.52-1.907 1.386 0 0zm-32.923 10.57c-12.476 3.12-41.586 4.16-49.21 15.595-.173.347-.346 3.466.174 3.293 8.145 2.08 19.407-4.505 27.03-7.105 13.17-4.33 26.685-6.064 40.374-7.97-4.505-4.332-12.476-4.678-18.367-3.812-9.184 2.426 1.906-.347 0 0zm39.333-165.3c1.56 1.558 3.465 3.81 5.718 4.157 1.56 0 2.6-.173 3.465-.52 1.733.867-6.064-14.208-6.064-14.208-4.506-6.238-9.358-12.65-15.076-17.847-6.758-6.238-25.47-19.406-35.694-16.114-.52.52-.867 1.04-1.04 1.732 9.877 7.278 21.313 12.823 30.67 20.62 7.277 6.238 11.782 14.9 18.02 22.18zm-7.97 6.756c.346.348.52-.345.692-1.905.347-8.49-23.39-18.713-23.738-11.782 0 1.733 0 2.252.173 1.56 1.386.866 20.966 17.846 22.872 12.128.346.348-.347 1.04 0 0zm9.183 47.998c6.064-7.97-12.476-9.703-15.768-9.703-10.05-.347-23.392 9.876-17.5 21.66 4.158-5.026 6.757-8.318 8.143-9.878 2.253-2.945 6.758-3.638 10.05-3.465-.347 0-.52-.173-.52-.173.52-1.214 5.025-.175 13.342 2.77.867 0 1.56-.346 2.253-1.212.52-.693-.693.866 0 0zm204.98-.52l6.412 6.41c1.906-.865 2.946-2.25 3.466-4.157-5.717-13.34-21.658-22.525-34.134-10.05-1.56 1.387-2.945 3.64-4.158 7.105 10.223-6.41 19.06-8.144 28.416.693zm-13.34 50.25c.866-11.09-11.263-2.427-11.263 5.37.693 1.907 1.906 2.773 3.812 3.12 3.812.346 6.41-2.6 7.45-8.49.347-4.68-1.04 5.89 0 0zM350.25 553.41c2.427.346 4.506-1.906 5.72-6.585.866-7.277-14.902-6.757-10.05 2.946.52 2.08 2.08 3.292 4.33 3.64 2.427.172-2.25-.348 0 0z"/></g></g></svg>